Coordinates
version=1
nRows=24
nColumns=38
inDegrees=no

Units are S.I. units (second, meters, Newtons, ...)
If the header above contains a line with 'inDegrees', this indicates whether rotational values are in degrees (yes) or radians (no).

endheader
time	pelvis_tilt	pelvis_list	pelvis_rotation	pelvis_tx	pelvis_ty	pelvis_tz	hip_flexion_r	hip_adduction_r	hip_rotation_r	knee_angle_r	ankle_angle_r	subtalar_angle_r	mtp_angle_r	hip_flexion_l	hip_adduction_l	hip_rotation_l	knee_angle_l	ankle_angle_l	subtalar_angle_l	mtp_angle_l	lumbar_extension	lumbar_bending	lumbar_rotation	arm_flex_r	arm_add_r	arm_rot_r	elbow_flex_r	pro_sup_r	wrist_flex_r	wrist_dev_r	arm_flex_l	arm_add_l	arm_rot_l	elbow_flex_l	pro_sup_l	wrist_flex_l	wrist_dev_l
5	2.05791	1.5018	-0.304178	0.739561	0.00519763	0.946132	0.147914	0.0208515	-0.199941	0.413456	-0.298026	0	0	0.184142	-0.0861375	0.268423	0.743464	-0.137438	0	0	-0.596533	0.277145	0.0612363	-0.341342	-0.0747205	-0.407072	1.40839	1.5708	0	0	0.039912	-0.130513	-0.0881541	0.725254	1.5708	0	0
5.01	2.06581	1.50297	-0.311585	0.739889	0.00600413	0.946308	0.14739	0.0198705	-0.2006	0.414501	-0.29778	0	0	0.190042	-0.0842938	0.269611	0.722833	-0.135491	0	0	-0.596003	0.27539	0.058739	-0.340062	-0.0735029	-0.40565	1.40369	1.5708	0	0	0.0389518	-0.132889	-0.0867447	0.72425	1.5708	0	0
5.02	2.07345	1.50402	-0.318832	0.740172	0.00678797	0.946426	0.146933	0.0190909	-0.200796	0.415645	-0.297308	0	0	0.195232	-0.0823995	0.270617	0.702103	-0.133448	0	0	-0.595506	0.273751	0.056862	-0.339435	-0.0723594	-0.404459	1.3999	1.5708	0	0	0.0380191	-0.134603	-0.0858234	0.723356	1.5708	0	0
5.03	2.08125	1.5047	-0.326369	0.740438	0.00753815	0.946503	0.146292	0.0188915	-0.200003	0.416397	-0.296733	0	0	0.200379	-0.0804372	0.271701	0.683523	-0.132386	0	0	-0.59525	0.272475	0.0553151	-0.339105	-0.0711579	-0.403643	1.39708	1.5708	0	0	0.03721	-0.135672	-0.0858325	0.721905	1.5708	0	0
5.04	2.08864	1.50508	-0.333624	0.7407	0.00828677	0.946554	0.145698	0.0191988	-0.198329	0.417223	-0.296063	0	0	0.205019	-0.0786668	0.273767	0.666494	-0.132061	0	0	-0.59509	0.27141	0.0540511	-0.338824	-0.0698239	-0.403433	1.39446	1.5708	0	0	0.0364864	-0.136258	-0.0865031	0.719783	1.5708	0	0
5.05	2.09492	1.50516	-0.340018	0.740872	0.00905788	0.946542	0.145245	0.0198402	-0.195869	0.418372	-0.295291	0	0	0.208773	-0.077285	0.275814	0.650068	-0.132455	0	0	-0.594955	0.270751	0.0531302	-0.338776	-0.0686052	-0.403883	1.39217	1.5708	0	0	0.0353493	-0.136405	-0.0873204	0.717936	1.5708	0	0
5.06	2.09904	1.50472	-0.344818	0.740979	0.00986149	0.946491	0.144936	0.0211476	-0.192746	0.419938	-0.294232	0	0	0.211919	-0.0762834	0.277239	0.634152	-0.134294	0	0	-0.594997	0.270588	0.0527487	-0.338956	-0.0678664	-0.404281	1.39025	1.5708	0	0	0.0335814	-0.136161	-0.0883259	0.716943	1.5708	0	0
5.07	2.0988	1.50415	-0.34646	0.741132	0.0107266	0.946425	0.145128	0.0229616	-0.187412	0.422066	-0.289574	0	0	0.214543	-0.0764585	0.275354	0.617403	-0.146033	0	0	-0.594761	0.269927	0.0477365	-0.335413	-0.0696479	-0.398557	1.38568	1.5708	0	0	0.0263937	-0.134724	-0.0997515	0.72121	1.5708	0	0
5.08	2.09867	1.50277	-0.347918	0.741196	0.0115683	0.946266	0.145169	0.0252246	-0.18357	0.424368	-0.288221	0	0	0.217194	-0.0768841	0.2752	0.604974	-0.150953	0	0	-0.595251	0.270519	0.0479568	-0.33623	-0.0697982	-0.397906	1.38548	1.5708	0	0	0.0230025	-0.133953	-0.102621	0.722911	1.5708	0	0
5.09	2.09954	1.50129	-0.350715	0.741246	0.0124348	0.946109	0.145107	0.0274565	-0.179841	0.426733	-0.286955	0	0	0.218612	-0.0774994	0.275434	0.593084	-0.157775	0	0	-0.595801	0.270999	0.0486626	-0.337237	-0.0702215	-0.397181	1.38536	1.5708	0	0	0.0197295	-0.133209	-0.105281	0.724682	1.5708	0	0
5.1	2.10146	1.49951	-0.354807	0.741267	0.013327	0.945941	0.144732	0.0297662	-0.176824	0.429072	-0.285674	0	0	0.219338	-0.0784838	0.2752	0.583316	-0.167734	0	0	-0.596464	0.271524	0.0497391	-0.338276	-0.0708852	-0.396559	1.38516	1.5708	0	0	0.0164014	-0.132619	-0.107565	0.726617	1.5708	0	0
5.11	2.10475	1.49749	-0.360465	0.741259	0.0142324	0.945759	0.144121	0.0320806	-0.174549	0.431626	-0.284079	0	0	0.219561	-0.0796834	0.274444	0.576174	-0.180776	0	0	-0.597306	0.272135	0.0503336	-0.338893	-0.071788	-0.395408	1.3849	1.5708	0	0	0.0125867	-0.132264	-0.110036	0.728735	1.5708	0	0
5.12	2.10848	1.49521	-0.366713	0.741214	0.0151534	0.945552	0.143432	0.0343675	-0.173305	0.434541	-0.282569	0	0	0.219403	-0.0807406	0.274603	0.573473	-0.191377	0	0	-0.598346	0.273028	0.0509028	-0.339613	-0.0726797	-0.394146	1.38521	1.5708	0	0	0.00880799	-0.132038	-0.112152	0.730221	1.5708	0	0
5.13	2.11402	1.49271	-0.375004	0.741174	0.0160871	0.945336	0.142595	0.0367151	-0.172623	0.437622	-0.281128	0	0	0.218472	-0.0818639	0.275071	0.574831	-0.19755	0	0	-0.599566	0.273921	0.0518625	-0.340573	-0.073465	-0.392952	1.38582	1.5708	0	0	0.00522846	-0.131827	-0.113865	0.731109	1.5708	0	0
5.14	2.12443	1.49051	-0.38824	0.741096	0.0170135	0.945189	0.141486	0.0384317	-0.172618	0.440733	-0.2798	0	0	0.21627	-0.0832986	0.273524	0.576954	-0.197629	0	0	-0.601043	0.274402	0.0526263	-0.341367	-0.0741349	-0.391867	1.38602	1.5708	0	0	0.00166475	-0.131616	-0.115357	0.73193	1.5708	0	0
5.15	2.13447	1.48824	-0.401358	0.741026	0.0179558	0.945037	0.140365	0.0401901	-0.172715	0.443979	-0.278502	0	0	0.212988	-0.0850526	0.27184	0.579672	-0.193556	0	0	-0.602398	0.274775	0.0535696	-0.342044	-0.074788	-0.390859	1.38569	1.5708	0	0	-0.0020969	-0.131439	-0.116657	0.733206	1.5708	0	0
5.16	2.14344	1.48585	-0.413652	0.740987	0.0189176	0.944862	0.139465	0.0420807	-0.172739	0.447615	-0.277288	0	0	0.208787	-0.0872294	0.270056	0.581703	-0.189526	0	0	-0.60352	0.275027	0.0546709	-0.34262	-0.0755084	-0.389766	1.38499	1.5708	0	0	-0.00617209	-0.13139	-0.117771	0.735278	1.5708	0	0
5.17	2.15217	1.48352	-0.425719	0.74095	0.0198574	0.944691	0.138637	0.043766	-0.172702	0.451314	-0.276189	0	0	0.203898	-0.0898291	0.267874	0.581528	-0.18713	0	0	-0.604318	0.275266	0.0552414	-0.342922	-0.0762599	-0.388477	1.38437	1.5708	0	0	-0.0104872	-0.131548	-0.118864	0.737709	1.5708	0	0
5.18	2.16259	1.48153	-0.439418	0.740893	0.0207603	0.944562	0.137581	0.0449929	-0.17237	0.45473	-0.275117	0	0	0.198605	-0.0924588	0.265115	0.579156	-0.186183	0	0	-0.604862	0.275145	0.0557241	-0.343132	-0.0772094	-0.387216	1.3838	1.5708	0	0	-0.0142104	-0.131656	-0.119729	0.739431	1.5708	0	0
5.19	2.17446	1.47995	-0.454175	0.740807	0.0216083	0.944507	0.136237	0.0458077	-0.171767	0.457486	-0.274251	0	0	0.193554	-0.0949141	0.261539	0.575655	-0.186367	0	0	-0.60508	0.274638	0.0557679	-0.343069	-0.0782973	-0.38593	1.38287	1.5708	0	0	-0.0171553	-0.131805	-0.120277	0.739808	1.5708	0	0
5.2	2.18539	1.47886	-0.467184	0.740646	0.0223858	0.94449	0.134943	0.0460932	-0.17133	0.459477	-0.275339	0	0	0.189658	-0.0968016	0.258075	0.57317	-0.18548	0	0	-0.605033	0.274308	0.0597589	-0.346236	-0.0773791	-0.389836	1.38422	1.5708	0	0	-0.0155417	-0.132279	-0.114089	0.735611	1.5708	0	0
5.21	2.20857	1.47816	-0.492179	0.740397	0.0231532	0.944646	0.132567	0.0451679	-0.171378	0.461611	-0.272955	0	0	0.184962	-0.0978254	0.252625	0.569846	-0.188984	0	0	-0.605068	0.272716	0.0534613	-0.342047	-0.0810089	-0.382623	1.37971	1.5708	0	0	-0.022152	-0.132424	-0.120137	0.739529	1.5708	0	0
5.22	2.23271	1.47758	-0.517263	0.739989	0.0238432	0.944832	0.129886	0.043779	-0.172075	0.463119	-0.27268	0	0	0.180864	-0.0979867	0.248493	0.567559	-0.19027	0	0	-0.605488	0.271792	0.0513967	-0.341492	-0.0827417	-0.380673	1.37822	1.5708	0	0	-0.0249341	-0.132662	-0.120002	0.740983	1.5708	0	0
5.23	2.26207	1.47691	-0.547	0.739563	0.0245107	0.945128	0.126056	0.0423304	-0.17289	0.463265	-0.272713	0	0	0.176212	-0.0978436	0.244548	0.564917	-0.19116	0	0	-0.606446	0.270893	0.0487945	-0.340583	-0.084314	-0.378661	1.37632	1.5708	0	0	-0.0277689	-0.132997	-0.12014	0.743465	1.5708	0	0
